<svg xmlns="http://www.w3.org/2000/svg" viewBox="0 0 720 220" role="img" aria-label="Low Noise News Feed">
  <g fill="#111214">
    <rect x="30" y="40" width="35" height="10" rx="5" />
    <circle cx="95" cy="45" r="8" />
    <circle cx="140" cy="45" r="14" />
    <rect x="72" y="84" width="80" height="14" rx="7" />
    <rect x="185" y="84" width="66" height="14" rx="7" />
    <rect x="275" y="84" width="58" height="14" rx="7" />
    <circle cx="374" cy="91" r="13" />
    <circle cx="430" cy="91" r="10" />
    <rect x="100" y="128" width="28" height="10" rx="5" />
    <rect x="152" y="128" width="92" height="10" rx="5" />
    <rect x="288" y="124" width="78" height="16" rx="8" />
    <circle cx="408" cy="132" r="13" />
    <circle cx="465" cy="132" r="10" />
    <circle cx="510" cy="132" r="8" />
    <circle cx="552" cy="132" r="8" />
    <circle cx="586" cy="132" r="8" />
    <rect x="100" y="170" width="38" height="10" rx="5" />
    <rect x="160" y="168" width="88" height="14" rx="7" />
    <rect x="250" y="168" width="72" height="14" rx="7" />
    <circle cx="360" cy="175" r="12" />
    <circle cx="415" cy="175" r="11" />
    <circle cx="462" cy="175" r="8" />
    <circle cx="505" cy="175" r="9" />
    <circle cx="548" cy="175" r="9" />
    <circle cx="590" cy="175" r="8" />
  </g>
  <g fill="none" stroke="#111214" stroke-linecap="round" stroke-linejoin="round" stroke-width="34">
    <path d="M438 70 576 136H674" />
    <path d="M576 136 646 82" />
    <path d="M576 136 646 190" />
  </g>
</svg>
